<svg height="504pt" viewBox="0 -11 504 503" width="504pt" xmlns="http://www.w3.org/2000/svg"><path d="m318 412.507812h-199.414062c-2.210938 0-4-1.792968-4-4 0-2.207031 1.789062-4 4-4h199.414062c2.207031 0 4 1.792969 4 4 0 2.207032-1.792969 4-4 4zm0 0" fill="#ccd1d9"/><path d="m318 428.507812h-199.414062c-2.210938 0-4-1.792968-4-4 0-2.207031 1.789062-4 4-4h199.414062c2.207031 0 4 1.792969 4 4 0 2.207032-1.792969 4-4 4zm0 0" fill="#ccd1d9"/><path d="m44 408.507812c-4.425781 0-8 3.578126-8 8 0 4.425782 3.574219 8 8 8h44.007812v-16zm0 0" fill="#656d78"/><path d="m287.992188 476.507812c0 2.199219 1.800781 4 4 4h24.007812c2.199219 0 4-1.800781 4-4v-16c0-2.199218-1.800781-4-4-4h-24.007812c-2.199219 0-4 1.800782-4 4zm0 0" fill="#ec87c0"/><path d="m128 416.507812c0 13.253907-10.746094 24-24 24s-24-10.746093-24-24c0-13.253906 10.746094-24 24-24s24 10.746094 24 24zm0 0" fill="#e6e9ed"/><path d="m111.753906 416.507812c0 4.28125-3.472656 7.753907-7.753906 7.753907s-7.753906-3.472657-7.753906-7.753907 3.472656-7.75 7.753906-7.75 7.753906 3.46875 7.753906 7.75zm0 0" fill="#ccd1d9"/><path d="m72 456.507812-32 12 32 12-.007812-12zm0 0" fill="#ffd2a6"/><path d="m20 .5c-11.046875 0-20 8.960938-20 20.007812 0 11.046876 8.953125 20 20 20h28v-40.007812zm0 0" fill="#4a89dc"/><path d="m0 20.539062v319.96875c0 11.046876 8.953125 20 20 20h436v-320h-436c-11.03125 0-19.9765625-8.9375-20-19.96875zm0 0" fill="#5d9cec"/><path d="m88 96.507812v96h-24v96h120v24h200v-216zm0 0" fill="#87bcf4"/><path d="m484 80.507812h-28v320h28c11.046875 0 20-8.953124 20-20v-320c0 11.046876-8.953125 20-20 20zm0 0" fill="#87bcf4"/><path d="m484 40.507812h-28v40h28c11.046875 0 20-8.953124 20-20 0-11.046874-8.953125-20-20-20zm0 0" fill="#5d9cec"/><path d="m264 480.507812h-192l-.007812-12 .007812-12h192zm0 0" fill="#f6bb42"/><path d="m264 456.507812h32v24h-32zm0 0" fill="#ccd1d9"/><path d="m392 476.5625c0 2.203125-1.800781 4-4 4h-32c-2.199219 0-4-1.796875-4-4v-68.0625c0-2.199219 1.800781-4 4-4h32c2.199219 0 4 1.800781 4 4zm0 0" fill="#e6e9ed"/><path d="m352 420.515625h40v43.992187h-40zm0 0" fill="#5d9cec"/><path d="m280.238281 472.507812c-2.207031 0-4.039062-1.792968-4.039062-4 0-2.207031 1.753906-4 3.953125-4h.085937c2.203125 0 4 1.792969 4 4 0 2.207032-1.789062 4-4 4zm0 0" fill="#aab2bd"/><g fill="#f5f7fa"><path d="m88 140.507812c-2.207031 0-4-1.800781-4-4v-40c0-2.214843 1.792969-4 4-4s4 1.785157 4 4v40c0 2.199219-1.792969 4-4 4zm0 0"/><path d="m88 196.507812c-2.207031 0-4-1.800781-4-4v-32c0-2.214843 1.792969-4 4-4s4 1.785157 4 4v32c0 2.199219-1.792969 4-4 4zm0 0"/><path d="m64 236.507812c-2.207031 0-4-1.800781-4-4v-40c0-2.214843 1.792969-4 4-4s4 1.785157 4 4v40c0 2.199219-1.792969 4-4 4zm0 0"/><path d="m64 292.507812c-2.207031 0-4-1.792968-4-4v-32c0-2.207031 1.792969-4 4-4s4 1.792969 4 4v32c0 2.207032-1.792969 4-4 4zm0 0"/><path d="m160 100.507812h-71.503906c-2.207032 0-4-1.800781-4-4 0-2.214843 1.792968-4 4-4h71.503906c2.207031 0 4 1.785157 4 4 0 2.199219-1.792969 4-4 4zm0 0"/><path d="m192 196.507812h-128c-2.207031 0-4-1.800781-4-4 0-2.214843 1.792969-4 4-4h128c2.207031 0 4 1.785157 4 4 0 2.199219-1.792969 4-4 4zm0 0"/><path d="m184 292.507812h-120c-2.207031 0-4-1.792968-4-4 0-2.207031 1.792969-4 4-4h120c2.207031 0 4 1.792969 4 4 0 2.207032-1.792969 4-4 4zm0 0"/><path d="m184 196.492188c-2.207031 0-4-1.785157-4-4v-7.984376c0-2.214843 1.792969-4 4-4s4 1.785157 4 4v7.984376c0 2.214843-1.792969 4-4 4zm0 0"/><path d="m296 196.492188c-2.207031 0-4-1.785157-4-4v-7.984376c0-2.214843 1.792969-4 4-4s4 1.785157 4 4v7.984376c0 2.214843-1.792969 4-4 4zm0 0"/><path d="m184 164.507812c-2.207031 0-4-1.800781-4-4v-64c0-2.214843 1.792969-4 4-4s4 1.785157 4 4v64c0 2.199219-1.792969 4-4 4zm0 0"/><path d="m240 164.507812c-2.207031 0-4-1.800781-4-4v-64c0-2.214843 1.792969-4 4-4s4 1.785157 4 4v64c0 2.199219-1.792969 4-4 4zm0 0"/><path d="m256 164.507812h-32c-2.207031 0-4-1.800781-4-4 0-2.214843 1.792969-4 4-4h32c2.207031 0 4 1.785157 4 4 0 2.199219-1.792969 4-4 4zm0 0"/><path d="m200 164.507812h-16c-2.207031 0-4-1.800781-4-4 0-2.214843 1.792969-4 4-4h16c2.207031 0 4 1.785157 4 4 0 2.199219-1.792969 4-4 4zm0 0"/><path d="m296 164.507812h-16c-2.207031 0-4-1.800781-4-4 0-2.214843 1.792969-4 4-4h16c2.207031 0 4 1.785157 4 4 0 2.199219-1.792969 4-4 4zm0 0"/><path d="m384 100.507812h-200c-2.207031 0-4-1.800781-4-4 0-2.214843 1.792969-4 4-4h200c2.207031 0 4 1.785157 4 4 0 2.199219-1.792969 4-4 4zm0 0"/><path d="m296 164.507812c-2.207031 0-4-1.800781-4-4v-64c0-2.214843 1.792969-4 4-4s4 1.785157 4 4v64c0 2.199219-1.792969 4-4 4zm0 0"/><path d="m384 316.507812c-2.207031 0-4-1.792968-4-4v-216c0-2.214843 1.792969-4 4-4s4 1.785157 4 4v216c0 2.207032-1.792969 4-4 4zm0 0"/><path d="m384 196.507812h-168c-2.207031 0-4-1.800781-4-4 0-2.214843 1.792969-4 4-4h168c2.207031 0 4 1.785157 4 4 0 2.199219-1.792969 4-4 4zm0 0"/><path d="m184 316.507812c-2.207031 0-4-1.792968-4-4v-24c0-2.207031 1.792969-4 4-4s4 1.792969 4 4v24c0 2.207032-1.792969 4-4 4zm0 0"/><path d="m384 316.507812h-200c-2.207031 0-4-1.792968-4-4 0-2.207031 1.792969-4 4-4h200c2.207031 0 4 1.792969 4 4 0 2.207032-1.792969 4-4 4zm0 0"/><path d="m184 292.507812c-2.207031 0-4-1.792968-4-4v-32c0-2.207031 1.792969-4 4-4s4 1.792969 4 4v32c0 2.207032-1.792969 4-4 4zm0 0"/></g><path d="m48 465.507812-8 3 8 3zm0 0" fill="#656d78"/></svg>